<?xml version="1.0" encoding="UTF-8"?>
<svg xmlns="http://www.w3.org/2000/svg" id="Icons" viewBox="0 0 74 74" width="512" height="512"><path d="M60.7,64.788H13.3A4.1,4.1,0,0,1,9.212,60.7V13.3A4.1,4.1,0,0,1,13.3,9.212H60.7A4.1,4.1,0,0,1,64.788,13.3V60.7A4.1,4.1,0,0,1,60.7,64.788ZM13.3,11.212A2.093,2.093,0,0,0,11.212,13.3V60.7A2.093,2.093,0,0,0,13.3,62.788H60.7A2.093,2.093,0,0,0,62.788,60.7V13.3A2.093,2.093,0,0,0,60.7,11.212Z"/><path d="M53.485,11.212a1,1,0,0,1-1-1V3a1,1,0,0,1,2,0v7.212A1,1,0,0,1,53.485,11.212Z"/><path d="M45.242,11.212a1,1,0,0,1-1-1V3a1,1,0,0,1,2,0v7.212A1,1,0,0,1,45.242,11.212Z"/><path d="M37,11.212a1,1,0,0,1-1-1V3a1,1,0,0,1,2,0v7.212A1,1,0,0,1,37,11.212Z"/><path d="M28.758,11.212a1,1,0,0,1-1-1V3a1,1,0,0,1,2,0v7.212A1,1,0,0,1,28.758,11.212Z"/><path d="M20.515,11.212a1,1,0,0,1-1-1V3a1,1,0,0,1,2,0v7.212A1,1,0,0,1,20.515,11.212Z"/><path d="M53.485,72a1,1,0,0,1-1-1V63.788a1,1,0,0,1,2,0V71A1,1,0,0,1,53.485,72Z"/><path d="M45.242,72a1,1,0,0,1-1-1V63.788a1,1,0,0,1,2,0V71A1,1,0,0,1,45.242,72Z"/><path d="M37,72a1,1,0,0,1-1-1V63.788a1,1,0,0,1,2,0V71A1,1,0,0,1,37,72Z"/><path d="M28.758,72a1,1,0,0,1-1-1V63.788a1,1,0,0,1,2,0V71A1,1,0,0,1,28.758,72Z"/><path d="M20.515,72a1,1,0,0,1-1-1V63.788a1,1,0,0,1,2,0V71A1,1,0,0,1,20.515,72Z"/><path d="M71,54.485H63.788a1,1,0,0,1,0-2H71a1,1,0,0,1,0,2Z"/><path d="M71,46.242H63.788a1,1,0,0,1,0-2H71a1,1,0,0,1,0,2Z"/><path d="M71,38H63.788a1,1,0,0,1,0-2H71a1,1,0,0,1,0,2Z"/><path d="M71,29.758H63.788a1,1,0,0,1,0-2H71a1,1,0,0,1,0,2Z"/><path d="M71,21.515H63.788a1,1,0,0,1,0-2H71a1,1,0,0,1,0,2Z"/><path d="M10.212,54.485H3a1,1,0,0,1,0-2h7.212a1,1,0,1,1,0,2Z"/><path d="M10.212,46.242H3a1,1,0,0,1,0-2h7.212a1,1,0,0,1,0,2Z"/><path d="M10.212,38H3a1,1,0,0,1,0-2h7.212a1,1,0,1,1,0,2Z"/><path d="M10.212,29.758H3a1,1,0,0,1,0-2h7.212a1,1,0,0,1,0,2Z"/><path d="M10.212,21.515H3a1,1,0,0,1,0-2h7.212a1,1,0,0,1,0,2Z"/><path d="M20,28H10.21a1,1,0,0,1,0-2H19V20.31a1,1,0,0,1,1-1h4.5v-9.1a1,1,0,0,1,2,0v10.1a1,1,0,0,1-1,1H21V27A1,1,0,0,1,20,28Z"/><path d="M33.98,27.35a1,1,0,0,1-.707-1.707L43,15.916V10.21a1,1,0,0,1,2,0v6.12a1,1,0,0,1-.293.707l-10.02,10.02A1,1,0,0,1,33.98,27.35Z"/><path d="M31.667,33.1a4.341,4.341,0,1,1,4.341-4.341A4.346,4.346,0,0,1,31.667,33.1Zm0-6.682a2.341,2.341,0,1,0,2.341,2.341A2.343,2.343,0,0,0,31.667,26.417Z"/><path d="M27.47,41.5H24.53a1,1,0,0,1,0-2h2.94a1,1,0,0,1,0,2Z"/><path d="M17.53,41.5H10.21a1,1,0,0,1,0-2h7.32a1,1,0,0,1,0,2Z"/><path d="M39.5,41.5H34.47a1,1,0,0,1,0-2h4.616L43.5,35.086V29.5a1,1,0,0,1,.293-.707l7.5-7.5A1,1,0,0,1,52,21h3.5V10.21a1,1,0,0,1,2,0V22a1,1,0,0,1-1,1H52.414L45.5,29.914V35.5a1,1,0,0,1-.293.707l-5,5A1,1,0,0,1,39.5,41.5Z"/><path d="M56.6,64.79a1,1,0,0,1-1-1V55.471L52.32,52.2a1,1,0,0,1-.293-.707V45.244a1,1,0,0,1,2,0v5.831L57.3,54.35a1,1,0,0,1,.293.707V63.79A1,1,0,0,1,56.6,64.79Z"/><path d="M53.027,46.244a4.122,4.122,0,1,1,4.122-4.122A4.127,4.127,0,0,1,53.027,46.244Zm0-6.244a2.122,2.122,0,1,0,2.122,2.122A2.124,2.124,0,0,0,53.027,40Z"/><path d="M27.85,53.225H21.61a1,1,0,0,1-.707-.293l-3.277-3.277H10.21a1,1,0,0,1,0-2h7.83a1,1,0,0,1,.707.293l3.277,3.277H27.85a1,1,0,0,1,0,2Z"/><path d="M30.975,56.35A4.123,4.123,0,1,1,35.1,52.228,4.127,4.127,0,0,1,30.975,56.35Zm0-6.245A2.123,2.123,0,1,0,33.1,52.228,2.125,2.125,0,0,0,30.975,50.105Z"/></svg>
