<svg width="84" height="53" viewBox="0 0 84 53" fill="none" xmlns="http://www.w3.org/2000/svg">
<path d="M5.5076 2.71862C5.90449 1.99145 5.63674 1.08023 4.90957 0.683344C4.1824 0.28646 3.27118 0.554209 2.87429 1.28138L5.5076 2.71862ZM83.5 28L66.7676 32.4752L79.0095 44.7283L83.5 28ZM2.87429 1.28138C-0.74974 7.92132 -0.714313 15.9897 1.92073 23.6374C4.55843 31.2927 9.83778 38.6591 16.9345 44.0343C24.0417 49.4174 33.0085 52.8294 43.0077 52.4929C53.0149 52.1562 63.926 48.0697 74.9265 38.6795L72.9787 36.3978C62.409 45.4202 52.1301 49.1843 42.9068 49.4946C33.6755 49.8053 25.3712 46.661 18.7459 41.6429C12.1101 36.6168 7.19553 29.7371 4.75709 22.6601C2.31599 15.5753 2.39305 8.42509 5.5076 2.71862L2.87429 1.28138Z" fill="#BAD8DF"/>
</svg>
